<svg xmlns="http://www.w3.org/2000/svg" width="500px" height="240px">
    <path d="M89.500,240.000 L30.500,240.000 L-0.000,240.000 L-0.000,210.500 L-0.000,0.000 L30.500,0.000 L30.500,210.500 L89.500,210.500 L89.500,240.000 Z" />
    <path d="M125.000,0.000 L155.000,0.000 L155.000,240.000 L125.000,240.000 L125.000,0.000 Z" />
    <path d="M268.663 0 246.273 161.321 223.505 0 191 0 235.487 240 256.471 240 301 0z" />
    <path d="M425.000,210.500 L425.000,240.000 L367.500,240.000 L337.500,240.000 L337.500,210.500 L337.500,129.000 L337.500,100.500 L337.500,28.500 L337.500,0.000 L367.500,0.000 L422.000,0.000 L422.000,28.500 L367.500,28.500 L367.500,100.500 L417.500,100.500 L417.500,129.000 L367.500,129.000 L367.500,210.500 L425.000,210.500 Z" />
    <path d="M469.500,240.000 L469.500,210.500 L500.000,210.500 L500.000,240.000 L469.500,240.000 ZM469.500,0.000 L500.000,0.000 L500.000,182.000 L469.500,182.000 L469.500,0.000 Z" />
</svg>